<svg width="174" height="174" viewBox="0 0 174 174" fill="none" xmlns="http://www.w3.org/2000/svg">
<path fill-rule="evenodd" clip-rule="evenodd" d="M87 174C135.049 174 174 135.049 174 87C174 38.9512 135.049 0 87 0C38.9512 0 0 38.9512 0 87C0 135.049 38.9512 174 87 174ZM86.5 105C96.165 105 104 97.165 104 87.5C104 85.2421 103.572 83.084 102.794 81.1024L120.075 63.8208C122.665 61.2313 122.665 57.0328 120.075 54.4433C117.486 51.8537 113.287 51.8537 110.698 54.4433L96 69.141V34C96 29.0294 91.9706 25 87 25C82.0294 25 78 29.0294 78 34V72.1993C72.6317 75.188 69 80.9199 69 87.5C69 97.165 76.835 105 86.5 105ZM161.5 90C160.119 90 159 88.8807 159 87.5C159 86.1193 160.119 85 161.5 85H164.5C165.881 85 167 86.1193 167 87.5C167 88.8807 165.881 90 164.5 90H161.5ZM6 87.5C6 88.8807 7.11929 90 8.5 90H11.5C12.8807 90 14 88.8807 14 87.5C14 86.1193 12.8807 85 11.5 85H8.5C7.11929 85 6 86.1193 6 87.5ZM141.301 36.2348C140.324 37.2111 138.742 37.2111 137.765 36.2348C136.789 35.2584 136.789 33.6755 137.765 32.6992L139.887 30.5779C140.863 29.6016 142.446 29.6016 143.422 30.5779C144.398 31.5542 144.398 33.1371 143.422 34.1134L141.301 36.2348ZM29.5779 144.422C30.5542 145.398 32.1371 145.398 33.1134 144.422L35.2348 142.301C36.2111 141.324 36.2111 139.742 35.2348 138.765C34.2584 137.789 32.6755 137.789 31.6992 138.765L29.5779 140.887C28.6016 141.863 28.6016 143.446 29.5779 144.422ZM89 12.5C89 13.8807 87.8807 15 86.5 15C85.1193 15 84 13.8807 84 12.5V9.5C84 8.11929 85.1193 7 86.5 7C87.8807 7 89 8.11929 89 9.5V12.5ZM86.5 168C87.8807 168 89 166.881 89 165.5V162.5C89 161.119 87.8807 160 86.5 160C85.1193 160 84 161.119 84 162.5V165.5C84 166.881 85.1193 168 86.5 168ZM35.2348 32.6992C36.2111 33.6755 36.2111 35.2584 35.2348 36.2347C34.2584 37.2111 32.6755 37.2111 31.6992 36.2347L29.5779 34.1134C28.6016 33.1371 28.6016 31.5542 29.5779 30.5779C30.5542 29.6016 32.1371 29.6016 33.1134 30.5779L35.2348 32.6992ZM143.422 144.422C144.398 143.446 144.398 141.863 143.422 140.887L141.301 138.765C140.324 137.789 138.742 137.789 137.765 138.765C136.789 139.742 136.789 141.324 137.765 142.301L139.887 144.422C140.863 145.398 142.446 145.398 143.422 144.422Z" fill="white"/>
</svg>
