<svg width="208" height="208" viewBox="0 0 208 208" fill="none" xmlns="http://www.w3.org/2000/svg">
<path fill-rule="evenodd" clip-rule="evenodd" d="M69 0H50C22.3858 0 0 22.3858 0 50V69H35V50C35 41.7157 41.7157 35 50 35H69V0ZM139 35H158C166.284 35 173 41.7157 173 50V69H208V50C208 22.3858 185.614 0 158 0H139V35ZM173 158V139H208V158C208 185.614 185.614 208 158 208H139V173H158C166.284 173 173 166.284 173 158ZM69 173H50C41.7157 173 35 166.284 35 158V139H0V158C0 185.614 22.3858 208 50 208H69V173Z" fill="white"/>
</svg>
