<svg width="147" height="152" viewBox="0 0 147 152" fill="none" xmlns="http://www.w3.org/2000/svg">
<path fill-rule="evenodd" clip-rule="evenodd" d="M132.5 60C136.261 60 139.929 59.6165 143.467 58.8874C145.739 53.7197 147 48.0071 147 42C147 18.804 128.196 0 105 0C95.1992 0 86.1824 3.357 79.0369 8.98387C80.089 37.2357 103.519 60 132.5 60ZM63 42C63 36.6016 64.0185 31.441 65.8738 26.7001C74.1623 54.3712 99.463 74.7711 129.736 75.9464C122.798 81.011 114.248 84 105 84C104.556 84 104.113 83.9931 103.672 83.9794L37.6472 145.684C29.2751 153.508 16.2952 153.583 7.83331 145.856C-0.9727 137.815 -1.75547 124.217 6.06964 115.218L63.5923 49.0687C63.2028 46.7706 63 44.409 63 42Z" fill="white"/>
</svg>
