<svg width="147" height="152" viewBox="0 0 147 152" fill="none" xmlns="http://www.w3.org/2000/svg">
<path fill-rule="evenodd" clip-rule="evenodd" d="M131.822 60C135.583 60 139.251 59.6165 142.789 58.8874C145.061 53.7197 146.322 48.0071 146.322 42C146.322 18.804 127.518 0 104.322 0C94.5209 0 85.5042 3.357 78.3586 8.98387C79.4107 37.2357 102.841 60 131.822 60ZM62.3217 42C62.3217 36.6016 63.3402 31.441 65.1955 26.7001C73.484 54.3712 98.7848 74.7711 129.058 75.9464C122.12 81.011 113.57 84 104.322 84C103.877 84 103.435 83.9931 102.994 83.9794L36.9689 145.684C28.5968 153.508 15.6169 153.583 7.15502 145.856C-1.65098 137.815 -2.43376 124.217 5.39136 115.218L62.914 49.0687C62.5245 46.7706 62.3217 44.409 62.3217 42Z" fill="white"/>
<rect x="2.69104" y="29.5377" width="21" height="161.651" rx="10.5" transform="rotate(-42 2.69104 29.5377)" fill="#FFB1B1"/>
</svg>
