<svg width="147" height="188" viewBox="0 0 147 188" fill="none" xmlns="http://www.w3.org/2000/svg">
<path d="M65.1962 26.7002C73.4842 54.3697 98.7827 74.7679 129.054 75.9453C122.116 81.0087 113.569 84 104.322 84C103.878 84 103.436 83.9902 102.996 83.9766L97.6952 88.9297C91.5315 84.2492 84.3625 81.0061 76.7128 79.4844C66.7771 77.5081 56.4782 78.5227 47.119 82.3994C37.76 86.2761 29.7607 92.8409 24.1327 101.264C18.5046 109.687 15.4999 119.59 15.4999 129.721C15.5003 138.281 22.4399 145.22 30.9999 145.221C39.5599 145.221 46.4995 138.281 46.4999 129.721C46.4999 125.722 47.6864 121.811 49.9081 118.486C52.1298 115.161 55.2878 112.57 58.9823 111.04C62.6769 109.51 66.7427 109.109 70.6649 109.889C71.8656 110.128 73.0361 110.474 74.1639 110.921L36.9696 145.684C28.5975 153.508 15.6171 153.583 7.15515 145.856C-1.65072 137.815 -2.43356 124.216 5.39148 115.218L62.9169 49.0645C62.5278 46.7675 62.3221 44.4077 62.3221 42C62.3221 36.6016 63.3409 31.4411 65.1962 26.7002ZM104.322 0C127.518 0.000102474 146.322 18.8041 146.322 42C146.322 48.0075 145.057 53.7188 142.785 58.8867C139.249 59.6153 135.582 60 131.822 60C102.841 59.9999 79.4111 37.2354 78.3593 8.9834C85.5047 3.35679 94.5216 4.09385e-05 104.322 0Z" fill="white"/>
<path d="M31 129.72C31 122.655 33.0949 115.749 37.0199 109.875C40.9449 104.001 46.5236 99.4226 53.0505 96.719C59.5775 94.0155 66.7596 93.3081 73.6886 94.6864C80.6176 96.0646 86.9823 99.4666 91.9779 104.462C96.9734 109.458 100.375 115.822 101.754 122.751C103.132 129.68 102.425 136.862 99.721 143.389C97.0174 149.916 92.4391 155.495 86.565 159.42C80.6908 163.345 73.7848 165.44 66.72 165.44" stroke="white" stroke-width="14" stroke-linecap="round"/>
<path d="M44.7617 166.579C41.1487 164.556 41.4189 159.27 45.2193 157.627L69.951 146.932C73.3537 145.46 77.1184 148.074 76.9291 151.776L75.7096 175.632C75.5203 179.335 71.5088 181.551 68.2738 179.74L44.7617 166.579Z" fill="white"/>
</svg>
