<svg width="175" height="203" viewBox="0 0 175 203" fill="none" xmlns="http://www.w3.org/2000/svg">
<path d="M21 95.5C21 82.3475 24.9001 69.4904 32.2073 58.5546C39.5144 47.6187 49.9003 39.0952 62.0515 34.062C74.2028 29.0288 87.5738 27.7119 100.474 30.2778C113.373 32.8437 125.222 39.1772 134.523 48.4774C143.823 57.7776 150.156 69.6268 152.722 82.5265C155.288 95.4262 153.971 108.797 148.938 120.948C143.905 133.1 135.381 143.486 124.445 150.793C113.51 158.1 100.652 162 87.5 162" stroke="white" stroke-width="29" stroke-linecap="round"/>
<path d="M39.0174 159.864C35.4043 157.842 35.6746 152.556 39.475 150.912L99.8824 124.789C103.285 123.318 107.05 125.931 106.86 129.634L103.882 187.903C103.692 191.606 99.681 193.822 96.446 192.011L39.0174 159.864Z" fill="white"/>
</svg>
