<svg width="91" height="91" viewBox="0 0 91 91" fill="none" xmlns="http://www.w3.org/2000/svg">
<path d="M85.6 35H81.2C80.4 32 79.2 29.1 77.7 26.4L80.8 23.3C82.5 21.6 82.5 18.8 80.8 17.1L72.8 9.1C71.1 7.4 68.3 7.4 66.6 9.1L63.5 12.2C60.8 10.7 58 9.5 54.9 8.7V4.4C55 2 53 0 50.6 0H39.4C36.9 0 35 2 35 4.4V8.8C32 9.6 29.1 10.8 26.4 12.3L23.3 9.2C21.6 7.5 18.8 7.5 17.1 9.2L9.1 17.2C7.4 18.9 7.4 21.7 9.1 23.4L12.2 26.5C10.7 29.2 9.5 32 8.7 35.1H4.4C1.9 35 0 37 0 39.4V50.7C0 53 1.9 55 4.4 55H8.8C9.6 58 10.8 60.9 12.3 63.6L9.2 66.7C7.5 68.4 7.5 71.2 9.2 72.9L17.2 80.9C18.9 82.6 21.7 82.6 23.4 80.9L26.5 77.8C29.2 79.3 32 80.5 35.1 81.3V85.7C35.1 88.1 37.1 90.1 39.5 90.1H50.8C53.2 90.1 55.2 88.1 55.2 85.7V81.3C58.2 80.5 61.1 79.3 63.8 77.8L66.9 80.9C68.6 82.6 71.4 82.6 73.1 80.9L81.1 72.9C82.8 71.2 82.8 68.4 81.1 66.7L78 63.6C79.5 60.9 80.7 58.1 81.5 55H85.9C88.3 55 90.3 53 90.3 50.6V39.4C90 37 88 35 85.6 35ZM45 65C34 65 25 56 25 45C25 34 34 25 45 25C56 25 65 34 65 45C65 56 56 65 45 65Z" fill="white"/>
</svg>
