<svg width="244" height="243" viewBox="0 0 244 243" fill="none" xmlns="http://www.w3.org/2000/svg">
<path fill-rule="evenodd" clip-rule="evenodd" d="M219.411 94.3951H231.3C237.785 94.3951 243.189 99.7891 244 106.262V136.468C244 142.941 238.596 148.335 232.111 148.335H220.221C218.06 156.696 214.817 164.247 210.764 171.529L219.141 179.89C223.734 184.475 223.734 192.027 219.141 196.612L197.524 218.188C192.93 222.772 185.364 222.772 180.771 218.188L172.394 209.827C165.099 213.872 157.262 217.109 149.156 219.266V231.133C149.156 237.606 143.752 243 137.267 243H106.733C100.248 243 94.8439 237.606 94.8439 231.133V219.266C86.4673 217.109 78.9014 213.872 71.6058 209.827L63.2292 218.188C58.6357 222.772 51.0698 222.772 46.4762 218.188L24.8594 196.612C20.2658 192.027 20.2658 184.475 24.8594 179.89L33.2359 171.529C29.1827 164.247 25.9402 156.426 23.7785 148.335H11.8893C5.134 148.335 0 142.941 0 136.738V106.262C0 99.7891 5.134 94.3951 11.8893 94.6648H23.5083C25.67 86.3041 28.9125 78.7525 32.9657 71.4706L24.5892 63.1099C19.9955 58.525 19.9955 50.9734 24.5892 46.3884L46.206 24.8124C50.7996 20.2275 58.3654 20.2275 62.959 24.8124L71.3356 33.1732C78.6312 29.1276 86.4673 25.8912 94.5737 23.7336V11.8668C94.5737 5.39398 99.7076 0 106.463 0H136.726C143.211 0 148.616 5.39398 148.346 11.8668V23.4639C156.722 25.6215 164.288 28.8579 171.584 32.9034L179.96 24.5427C184.554 19.9578 192.12 19.9578 196.713 24.5427L218.33 46.1188C222.924 50.7037 222.924 58.2552 218.33 62.8401L209.953 71.2009C214.007 78.4828 217.249 86.3041 219.411 94.3951ZM122 188C159.003 188 189 158.003 189 121C189 83.9969 159.003 54 122 54C84.9969 54 55 83.9969 55 121C55 158.003 84.9969 188 122 188Z" fill="white"/>
</svg>
