<svg width="301" height="225" viewBox="0 0 301 225" fill="none" xmlns="http://www.w3.org/2000/svg">
<path fill-rule="evenodd" clip-rule="evenodd" d="M227 74C213.193 74 202 85.1929 202 99V200C202 213.807 213.193 225 227 225H276C289.807 225 301 213.807 301 200V99C301 85.1929 289.807 74 276 74H227ZM231.5 213C229.567 213 228 214.567 228 216.5C228 218.433 229.567 220 231.5 220H271.5C273.433 220 275 218.433 275 216.5C275 214.567 273.433 213 271.5 213H231.5Z" fill="white"/>
<path fill-rule="evenodd" clip-rule="evenodd" d="M0 39.9999C0 17.9086 17.9086 0 40 0H250.132C272.223 0 290.132 17.9086 290.132 40V62.996C288.262 62.6313 286.33 62.4402 284.354 62.4402H256V56C256 44.9543 247.046 36 236 36H55C43.9543 36 35 44.9543 35 56V133C35 144.046 43.9543 153 55 153H190.55V187.321H40C17.9086 187.321 0 169.412 0 147.321V39.9999Z" fill="white"/>
</svg>
