<svg width="57" height="44" viewBox="0 0 57 44" fill="none" xmlns="http://www.w3.org/2000/svg">
<path fill-rule="evenodd" clip-rule="evenodd" d="M0 5C0 2.23858 2.23858 0 5 0H52C54.7614 0 57 2.23858 57 5V33.0751C57 35.8365 54.7614 38.0751 52 38.0751H5C2.23858 38.0751 0 35.8365 0 33.0751V5ZM35.5538 14.704C35.1802 14.3305 34.5746 14.3305 34.201 14.704L26.3937 22.5113L23.2687 19.3864C22.8952 19.0128 22.2895 19.0128 21.916 19.3864C21.5424 19.7599 21.5424 20.3656 21.916 20.7391L25.7103 24.5334C26.0838 24.907 26.6895 24.907 27.063 24.5334C27.0827 24.5138 27.1012 24.4936 27.1188 24.4728C27.162 24.4421 27.2032 24.4073 27.2419 24.3686L35.5538 16.0568C35.9273 15.6832 35.9273 15.0776 35.5538 14.704ZM22.7925 39.9526C21.7349 39.9526 20.8775 40.81 20.8775 41.8677C20.8775 42.9253 21.7349 43.7827 22.7925 43.7827H34.2076C35.2652 43.7827 36.1226 42.9253 36.1226 41.8677C36.1226 40.81 35.2652 39.9526 34.2076 39.9526H22.7925Z" fill="white"/>
</svg>
